<svg width="532.601" height="95.3" viewBox="-0.6005949331007834 -24.3 538.6005949331008 101.30001510256832" xmlns="http://www.w3.org/2000/svg"><g id="svgGroup" stroke-linecap="round" fill-rule="evenodd" font-size="9pt" stroke="#000000" stroke-width="0.25mm" fill="#111111" style="stroke:#000000;stroke-width:0.25mm;fill:#111111"><path d="M 110.701 40.4 L 110.701 74 L 94.701 74 L 94.701 44.5 A 20.225 20.225 0 0 0 94.538 41.845 Q 94.135 38.808 92.728 37.093 A 6.055 6.055 0 0 0 92.651 37 A 6.703 6.703 0 0 0 87.736 34.615 A 9.194 9.194 0 0 0 87.201 34.6 Q 85.401 34.6 83.151 35.75 A 13.826 13.826 0 0 0 80.097 37.894 A 16.721 16.721 0 0 0 79.001 39 Q 77.101 41.1 76.101 43.9 L 76.101 74 L 60.101 74 L 60.101 1 L 76.101 1 L 76.101 30.3 Q 79.001 25.6 83.751 23.05 A 21.663 21.663 0 0 1 93.845 20.503 A 25.288 25.288 0 0 1 94.201 20.5 A 26.37 26.37 0 0 1 97.641 20.71 Q 99.368 20.938 100.801 21.413 A 12.026 12.026 0 0 1 102.851 22.3 A 13.414 13.414 0 0 1 106.145 24.824 A 11.894 11.894 0 0 1 107.801 27.05 Q 109.501 30 110.101 33.5 Q 110.701 37 110.701 40.4 Z M 358.001 74 L 307.801 74 A 50.633 50.633 0 0 1 307.965 69.813 Q 308.14 67.706 308.502 65.847 A 30.867 30.867 0 0 1 308.551 65.6 A 22.885 22.885 0 0 1 310.381 60.116 A 20.929 20.929 0 0 1 311.051 58.85 Q 312.801 55.8 315.751 53.15 Q 318.456 50.72 322.464 48.5 A 53.109 53.109 0 0 1 323.201 48.1 Q 327.845 45.63 330.975 43.892 A 272.078 272.078 0 0 0 331.051 43.85 Q 334.201 42.1 336.101 40.9 A 14.26 14.26 0 0 0 337.176 40.155 Q 338.235 39.341 338.751 38.55 Q 339.501 37.4 339.501 36 A 6.756 6.756 0 0 0 339.289 34.277 A 5.466 5.466 0 0 0 338.601 32.7 A 5.538 5.538 0 0 0 336.658 30.882 A 6.992 6.992 0 0 0 336.001 30.55 Q 334.548 29.909 332.51 29.816 A 15.543 15.543 0 0 0 331.801 29.8 A 14.359 14.359 0 0 0 328.569 30.156 A 13.148 13.148 0 0 0 328.001 30.3 Q 326.201 30.8 324.551 31.8 Q 322.901 32.8 321.401 34.15 A 34.919 34.919 0 0 0 319.526 35.974 A 41.588 41.588 0 0 0 318.401 37.2 L 308.301 25.4 Q 309.762 23.939 311.924 22.478 A 36.621 36.621 0 0 1 312.651 22 A 32.354 32.354 0 0 1 316.159 20.058 A 40.602 40.602 0 0 1 318.701 18.95 A 42.696 42.696 0 0 1 323.443 17.393 A 51.472 51.472 0 0 1 326.151 16.75 A 40.799 40.799 0 0 1 334.052 15.903 A 45.216 45.216 0 0 1 334.601 15.9 Q 341.801 15.9 346.751 18.05 A 19.242 19.242 0 0 1 350.935 20.497 A 15.335 15.335 0 0 1 354.301 24.1 A 15.445 15.445 0 0 1 356.758 30.893 A 19.781 19.781 0 0 1 356.901 33.3 A 18.653 18.653 0 0 1 356.685 36.207 A 13.491 13.491 0 0 1 355.851 39.25 Q 354.801 41.8 353.101 43.8 Q 351.401 45.8 349.251 47.4 A 62.146 62.146 0 0 1 346.054 49.631 A 54.982 54.982 0 0 1 345.001 50.3 Q 342.601 51.5 340.501 52.65 Q 338.401 53.8 336.601 54.85 A 37.177 37.177 0 0 0 333.841 56.622 A 33.174 33.174 0 0 0 333.251 57.05 Q 331.701 58.2 330.301 59.6 L 358.001 59.6 L 358.001 74 Z M 468.801 30.1 L 468.801 1 L 484.801 1 L 484.801 56.2 Q 484.801 58.12 485.313 59.112 A 2.35 2.35 0 0 0 485.601 59.55 A 2.813 2.813 0 0 0 486.57 60.276 Q 486.986 60.472 487.51 60.588 A 6.573 6.573 0 0 0 488.201 60.7 L 488.201 74 Q 484.192 74.763 481.641 74.798 A 17.621 17.621 0 0 1 481.401 74.8 A 15.302 15.302 0 0 1 478.654 74.568 Q 476.384 74.153 474.751 73 Q 472.201 71.2 471.601 68 L 471.301 65.3 A 18.227 18.227 0 0 1 466.308 71.004 A 17.646 17.646 0 0 1 463.701 72.6 Q 458.901 75 453.601 75 A 24.885 24.885 0 0 1 446.577 74.031 A 22.503 22.503 0 0 1 443.651 72.95 Q 439.101 70.9 435.751 67.2 A 25.668 25.668 0 0 1 430.832 59.12 A 29.388 29.388 0 0 1 430.601 58.5 A 30.842 30.842 0 0 1 428.864 49.847 A 36 36 0 0 1 428.801 47.7 A 33.967 33.967 0 0 1 429.75 39.528 A 28.513 28.513 0 0 1 431.801 33.85 A 26.084 26.084 0 0 1 436.41 27.159 A 23.547 23.547 0 0 1 440.001 24.1 A 20.32 20.32 0 0 1 450.922 20.523 A 24.989 24.989 0 0 1 452.001 20.5 A 19.634 19.634 0 0 1 460.058 22.15 A 19.085 19.085 0 0 1 462.001 23.15 A 18.412 18.412 0 0 1 466.911 27.281 A 17.01 17.01 0 0 1 468.801 30.1 Z M 383.801 65.5 L 383.801 95.3 L 367.801 95.3 L 367.801 21.5 L 381.701 21.5 L 381.701 30 A 21.236 21.236 0 0 1 387.339 24.053 A 20.36 20.36 0 0 1 389.001 23 A 18.97 18.97 0 0 1 395.59 20.769 A 24.726 24.726 0 0 1 399.301 20.5 A 23.319 23.319 0 0 1 406.407 21.561 A 21.334 21.334 0 0 1 409.051 22.6 Q 413.501 24.7 416.801 28.4 Q 420.101 32.1 421.901 37 A 29.721 29.721 0 0 1 423.637 45.491 A 34.747 34.747 0 0 1 423.701 47.6 A 35.997 35.997 0 0 1 422.833 55.653 A 29.574 29.574 0 0 1 420.801 61.6 A 25.643 25.643 0 0 1 416.564 68.046 A 22.795 22.795 0 0 1 412.751 71.4 Q 407.601 75 401.001 75 A 23.049 23.049 0 0 1 395.637 74.402 A 18.224 18.224 0 0 1 390.701 72.45 Q 386.301 69.9 383.801 65.5 Z M 256.301 66.3 L 261.801 56.2 Q 266.601 59.7 271.151 61.5 A 27.609 27.609 0 0 0 275.295 62.792 A 20.243 20.243 0 0 0 279.701 63.3 A 15.492 15.492 0 0 0 281.501 63.202 Q 282.388 63.098 283.119 62.883 A 6.116 6.116 0 0 0 284.501 62.3 A 3.382 3.382 0 0 0 285.707 61.144 Q 286.1 60.497 286.18 59.647 A 4.771 4.771 0 0 0 286.201 59.2 Q 286.201 57.7 285.201 56.85 A 5.724 5.724 0 0 0 284.389 56.283 Q 283.496 55.759 282.151 55.3 A 55.718 55.718 0 0 0 280.48 54.761 Q 278.976 54.3 277.101 53.8 A 124.664 124.664 0 0 1 272.882 52.314 Q 270.844 51.552 269.107 50.806 A 59.047 59.047 0 0 1 267.101 49.9 Q 263.101 48 261.101 45.25 A 9.959 9.959 0 0 1 259.513 41.756 Q 259.101 40.098 259.101 38.1 A 17.87 17.87 0 0 1 259.805 32.993 A 15.108 15.108 0 0 1 261.751 28.85 Q 264.401 24.9 269.301 22.7 A 23.951 23.951 0 0 1 274.859 21.016 Q 277.707 20.5 281.001 20.5 Q 286.401 20.5 291.551 22.2 A 26.44 26.44 0 0 1 299.128 26.206 A 31.855 31.855 0 0 1 301.201 27.9 L 295.001 37.9 A 59.412 59.412 0 0 0 291.782 35.824 Q 290.246 34.906 288.848 34.223 A 27.52 27.52 0 0 0 287.001 33.4 Q 283.501 32 280.201 32 A 12.552 12.552 0 0 0 278.431 32.12 A 9.94 9.94 0 0 0 277.101 32.4 Q 275.701 32.8 274.851 33.75 A 3.279 3.279 0 0 0 274.068 35.4 A 4.571 4.571 0 0 0 274.001 36.2 A 4.289 4.289 0 0 0 274.119 37.236 A 3.003 3.003 0 0 0 274.851 38.6 A 4.34 4.34 0 0 0 275.61 39.227 Q 275.995 39.483 276.48 39.714 A 10.956 10.956 0 0 0 277.551 40.15 Q 279.401 40.8 282.201 41.7 A 115.192 115.192 0 0 1 286.766 43.132 Q 288.955 43.872 290.817 44.62 A 54.148 54.148 0 0 1 293.001 45.55 A 21.66 21.66 0 0 1 295.923 47.139 Q 297.484 48.161 298.616 49.363 A 11.844 11.844 0 0 1 299.451 50.35 A 10.079 10.079 0 0 1 301.128 53.9 Q 301.505 55.332 301.581 57.022 A 19.43 19.43 0 0 1 301.601 57.9 A 17.835 17.835 0 0 1 300.741 63.572 A 14.476 14.476 0 0 1 295.851 70.45 Q 290.101 75 280.201 75 Q 273.501 75 267.101 72.8 Q 260.701 70.6 256.301 66.3 Z M 152.301 42.9 L 152.301 40.6 A 11.372 11.372 0 0 0 152.007 37.937 A 7.43 7.43 0 0 0 149.701 34 Q 147.101 31.7 141.801 31.7 A 22.855 22.855 0 0 0 134.829 32.748 A 21.373 21.373 0 0 0 133.551 33.2 Q 129.761 34.677 125.535 37.413 A 62.099 62.099 0 0 0 125.401 37.5 L 120.601 27.3 Q 125.801 23.9 131.451 22.2 A 40.85 40.85 0 0 1 142.225 20.515 A 46.033 46.033 0 0 1 143.401 20.5 A 39.719 39.719 0 0 1 150.579 21.108 Q 154.652 21.858 157.867 23.53 A 20.159 20.159 0 0 1 161.751 26.15 Q 168.301 31.8 168.301 42.5 L 168.301 56.2 Q 168.301 58.6 169.051 59.55 Q 169.801 60.5 171.701 60.7 L 171.701 74 A 49.85 49.85 0 0 1 169.414 74.405 A 39.972 39.972 0 0 1 167.951 74.6 Q 166.611 74.753 165.535 74.789 A 19.044 19.044 0 0 1 164.901 74.8 A 18.05 18.05 0 0 1 162.358 74.633 Q 161.063 74.448 160.012 74.059 A 7.454 7.454 0 0 1 158.051 73 Q 155.701 71.2 155.101 68.1 L 154.801 65.8 A 23.761 23.761 0 0 1 148.006 71.821 A 22.788 22.788 0 0 1 146.451 72.65 Q 141.601 75 136.301 75 A 21.097 21.097 0 0 1 130.567 74.245 A 18.237 18.237 0 0 1 126.951 72.8 Q 122.801 70.6 120.401 66.8 Q 118.001 63 118.001 58.3 A 15.716 15.716 0 0 1 118.944 52.792 A 14.37 14.37 0 0 1 120.901 49.2 A 18.352 18.352 0 0 1 126.136 44.489 A 23.463 23.463 0 0 1 128.901 43.05 A 26.067 26.067 0 0 1 135.767 41.13 A 34.149 34.149 0 0 1 140.601 40.8 Q 143.801 40.8 146.901 41.35 A 28.995 28.995 0 0 1 149.631 41.965 Q 150.983 42.342 152.137 42.83 A 17.391 17.391 0 0 1 152.301 42.9 Z M 52.801 34.4 L 37.201 39.1 A 10.625 10.625 0 0 0 34.202 35.926 A 10.31 10.31 0 0 0 33.351 35.4 A 10.5 10.5 0 0 0 28.728 34.116 A 12.553 12.553 0 0 0 28.101 34.1 Q 24.801 34.1 22.151 35.8 A 11.838 11.838 0 0 0 18.251 39.949 A 14.112 14.112 0 0 0 17.951 40.5 Q 16.401 43.5 16.401 47.7 A 17.808 17.808 0 0 0 16.776 51.437 A 13.832 13.832 0 0 0 18.001 54.9 A 13.813 13.813 0 0 0 20.117 57.96 A 11.801 11.801 0 0 0 22.201 59.75 A 10.312 10.312 0 0 0 28.049 61.5 A 12.416 12.416 0 0 0 28.101 61.5 A 10.905 10.905 0 0 0 31.129 61.087 A 10.047 10.047 0 0 0 31.851 60.85 Q 33.601 60.2 35.051 59 A 9.578 9.578 0 0 0 36.609 57.383 A 8.286 8.286 0 0 0 37.301 56.3 L 52.901 61.1 A 22.085 22.085 0 0 1 48.102 67.652 A 25.526 25.526 0 0 1 47.451 68.25 A 25.966 25.966 0 0 1 40.354 72.698 A 30.062 30.062 0 0 1 39.101 73.2 A 27.783 27.783 0 0 1 32.942 74.703 A 36.441 36.441 0 0 1 28.201 75 A 34.783 34.783 0 0 1 21.887 74.452 A 26.743 26.743 0 0 1 16.301 72.8 A 26.96 26.96 0 0 1 9.247 68.493 A 24.915 24.915 0 0 1 7.451 66.8 Q 3.801 63 1.901 58.1 Q 0.001 53.2 0.001 47.7 Q 0.001 40.5 3.351 34.3 Q 6.701 28.1 13.001 24.3 A 25.832 25.832 0 0 1 21.644 21.08 A 35.416 35.416 0 0 1 28.201 20.5 A 34.998 34.998 0 0 1 35.305 21.185 A 25.099 25.099 0 0 1 43.451 24.35 A 25.276 25.276 0 0 1 50.682 30.926 A 24.047 24.047 0 0 1 52.801 34.4 Z M 516.601 74 L 500.601 74 L 500.601 37.9 L 493.901 37.9 L 493.901 25.8 L 500.601 25.8 L 500.601 21.5 A 32.53 32.53 0 0 1 501.031 16.07 Q 501.559 12.953 502.734 10.354 A 20.167 20.167 0 0 1 502.851 10.1 A 18.23 18.23 0 0 1 506.298 5.048 A 16.592 16.592 0 0 1 509.251 2.65 Q 513.401 0 518.901 0 Q 522.301 0 525.701 0.8 A 40.781 40.781 0 0 1 531.183 2.52 A 46.635 46.635 0 0 1 532.601 3.1 L 529.701 15.1 Q 528.224 14.411 526.263 13.964 A 23.716 23.716 0 0 0 526.201 13.95 Q 524.201 13.5 522.501 13.5 A 7.254 7.254 0 0 0 520.748 13.699 A 4.796 4.796 0 0 0 518.101 15.35 Q 516.601 17.2 516.601 20.9 L 516.601 25.8 L 528.801 25.8 L 528.801 37.9 L 516.601 37.9 L 516.601 74 Z M 250.801 58.5 L 253.901 71.2 Q 251.701 72.1 249.051 73 A 40.984 40.984 0 0 1 243.506 74.449 A 35.54 35.54 0 0 1 243.501 74.45 Q 240.601 75 237.801 75 A 20.71 20.71 0 0 1 233.055 74.473 A 17.903 17.903 0 0 1 230.451 73.65 Q 227.101 72.3 225.151 69.2 A 11.621 11.621 0 0 1 223.784 65.98 Q 223.392 64.508 223.263 62.766 A 24.005 24.005 0 0 1 223.201 61 L 223.201 33.6 L 216.501 33.6 L 216.501 21.5 L 223.201 21.5 L 223.201 4.8 L 239.201 4.8 L 239.201 21.5 L 249.901 21.5 L 249.901 33.6 L 239.201 33.6 L 239.201 55.5 Q 239.201 57.078 239.679 58.122 A 3.343 3.343 0 0 0 240.501 59.25 A 4.529 4.529 0 0 0 242.898 60.336 A 6.184 6.184 0 0 0 243.801 60.4 A 11.044 11.044 0 0 0 245.792 60.21 A 14.599 14.599 0 0 0 247.451 59.8 A 27.478 27.478 0 0 0 249.052 59.256 Q 250.013 58.894 250.801 58.5 Z M 213.201 20.8 L 213.201 35.2 A 31.389 31.389 0 0 0 207.105 35.769 A 25.505 25.505 0 0 0 202.701 37.05 A 16.222 16.222 0 0 0 199.368 38.802 A 11.614 11.614 0 0 0 195.901 42.5 L 195.901 74 L 179.901 74 L 179.901 21.5 L 194.601 21.5 L 194.601 32.1 A 24.438 24.438 0 0 1 197.921 27.118 A 20.172 20.172 0 0 1 201.601 23.8 A 17.78 17.78 0 0 1 206.141 21.477 A 15.011 15.011 0 0 1 210.601 20.7 L 212.251 20.7 A 5.109 5.109 0 0 1 212.673 20.717 Q 212.963 20.741 213.201 20.8 Z M 468.901 54.2 L 468.901 43.2 A 14.09 14.09 0 0 0 466.39 38.881 A 13.468 13.468 0 0 0 466.051 38.5 Q 464.201 36.5 461.851 35.3 A 11.005 11.005 0 0 0 458.968 34.283 A 9.643 9.643 0 0 0 457.101 34.1 A 10.658 10.658 0 0 0 453.738 34.62 A 9.76 9.76 0 0 0 452.351 35.2 Q 450.201 36.3 448.601 38.25 Q 447.001 40.2 446.151 42.7 A 16.276 16.276 0 0 0 445.302 47.738 A 18.311 18.311 0 0 0 445.301 48 A 15.486 15.486 0 0 0 445.705 51.592 A 13.483 13.483 0 0 0 446.251 53.35 Q 447.201 55.8 448.901 57.65 Q 450.601 59.5 452.901 60.5 A 12.233 12.233 0 0 0 457.315 61.488 A 14.239 14.239 0 0 0 457.901 61.5 Q 459.601 61.5 461.201 60.95 Q 462.801 60.4 464.251 59.5 Q 465.701 58.6 466.901 57.2 Q 468.101 55.8 468.901 54.2 Z M 383.801 41.3 L 383.801 52.1 A 17.42 17.42 0 0 0 386.645 56.834 A 16.605 16.605 0 0 0 386.701 56.9 A 14.568 14.568 0 0 0 390.506 60.085 A 13.891 13.891 0 0 0 390.801 60.25 Q 393.101 61.5 395.601 61.5 A 10.192 10.192 0 0 0 399.106 60.906 A 9.538 9.538 0 0 0 400.351 60.35 Q 402.501 59.2 404.101 57.3 A 13.168 13.168 0 0 0 406.297 53.554 A 15.308 15.308 0 0 0 406.551 52.85 Q 407.401 50.3 407.401 47.5 A 15.399 15.399 0 0 0 407.066 44.233 A 12.982 12.982 0 0 0 406.451 42.2 Q 405.501 39.8 403.801 37.95 Q 402.101 36.1 399.801 35.1 A 12.233 12.233 0 0 0 395.386 34.112 A 14.239 14.239 0 0 0 394.801 34.1 A 10.992 10.992 0 0 0 391.988 34.476 A 12.536 12.536 0 0 0 391.551 34.6 Q 389.901 35.1 388.451 36.05 Q 387.001 37 385.801 38.3 A 11.711 11.711 0 0 0 383.902 41.089 A 13.141 13.141 0 0 0 383.801 41.3 Z M 152.301 56.2 L 152.301 51.5 A 21.447 21.447 0 0 0 149.66 50.646 A 26.734 26.734 0 0 0 147.851 50.25 Q 145.401 49.8 143.301 49.8 Q 139.236 49.8 136.451 51.464 A 10.012 10.012 0 0 0 136.001 51.75 A 7.269 7.269 0 0 0 134.305 53.294 A 5.69 5.69 0 0 0 133.101 56.9 Q 133.101 58.7 134.101 60.2 A 6.994 6.994 0 0 0 136.322 62.304 A 8.447 8.447 0 0 0 136.851 62.6 A 7.91 7.91 0 0 0 139.091 63.34 A 10.856 10.856 0 0 0 141.001 63.5 Q 143.401 63.5 145.801 62.6 A 14.98 14.98 0 0 0 147.938 61.611 A 11.247 11.247 0 0 0 149.801 60.3 A 8.764 8.764 0 0 0 151.175 58.903 A 7.788 7.788 0 0 0 151.601 58.3 A 5.215 5.215 0 0 0 152.027 57.489 Q 152.23 56.996 152.282 56.525 A 2.943 2.943 0 0 0 152.301 56.2 Z" vector-effect="non-scaling-stroke"/></g></svg>